<svg xmlns="http://www.w3.org/2000/svg" viewBox="0 0 1200 800" width="1200" height="800" role="img" aria-label="PLACEHOLDER · No. 09">
<defs>
<linearGradient id="bg" x1="0" y1="0" x2="1" y2="1"><stop offset="0" stop-color="#1E1C17"/><stop offset="1" stop-color="#151410"/></linearGradient>
<filter id="grain" x="0" y="0" width="100%" height="100%"><feTurbulence type="fractalNoise" baseFrequency="0.9" numOctaves="2" seed="9"/><feColorMatrix values="0 0 0 0 0.9  0 0 0 0 0.75  0 0 0 0 0.5  0 0 0 0.09 0"/></filter>
<filter id="blur"><feGaussianBlur stdDeviation="5"/></filter>
<linearGradient id="g0" gradientUnits="userSpaceOnUse" x1="504" y1="40" x2="897" y2="127"><stop offset="0" stop-color="#876D4F"/><stop offset="1" stop-color="#4B3D2C"/></linearGradient><linearGradient id="g1" gradientUnits="userSpaceOnUse" x1="874" y1="231" x2="584" y2="97"><stop offset="0" stop-color="#4B3D2C"/><stop offset="1" stop-color="#B4A187"/></linearGradient><linearGradient id="g2" gradientUnits="userSpaceOnUse" x1="745" y1="639" x2="1177" y2="560"><stop offset="0" stop-color="#D0A971"/><stop offset="1" stop-color="#876D4F"/></linearGradient><linearGradient id="g3" gradientUnits="userSpaceOnUse" x1="365" y1="127" x2="1056" y2="498"><stop offset="0" stop-color="#F2DEBF"/><stop offset="1" stop-color="#4B3D2C"/></linearGradient><linearGradient id="g4" gradientUnits="userSpaceOnUse" x1="91" y1="731" x2="792" y2="288"><stop offset="0" stop-color="#876D4F"/><stop offset="1" stop-color="#876D4F"/></linearGradient><linearGradient id="g5" gradientUnits="userSpaceOnUse" x1="224" y1="99" x2="580" y2="7"><stop offset="0" stop-color="#876D4F"/><stop offset="1" stop-color="#E4C48F"/></linearGradient><linearGradient id="g6" gradientUnits="userSpaceOnUse" x1="373" y1="473" x2="82" y2="684"><stop offset="0" stop-color="#B4A187"/><stop offset="1" stop-color="#D0A971"/></linearGradient><linearGradient id="g7" gradientUnits="userSpaceOnUse" x1="1214" y1="600" x2="667" y2="471"><stop offset="0" stop-color="#F2DEBF"/><stop offset="1" stop-color="#4B3D2C"/></linearGradient><linearGradient id="g8" gradientUnits="userSpaceOnUse" x1="9" y1="173" x2="-30" y2="159"><stop offset="0" stop-color="#E4C48F"/><stop offset="1" stop-color="#F2DEBF"/></linearGradient>
</defs>
<rect width="1200" height="800" fill="url(#bg)"/>
<g filter="url(#blur)"><path d="M504 40 Q743 45 897 127" stroke="url(#g0)" stroke-width="66" stroke-linecap="round" fill="none" opacity="0.78"/><path d="M874 231 Q616 -20 584 97" stroke="url(#g1)" stroke-width="65" stroke-linecap="round" fill="none" opacity="0.51"/><path d="M745 639 Q1165 417 1177 560" stroke="url(#g2)" stroke-width="100" stroke-linecap="round" fill="none" opacity="0.80"/><path d="M365 127 Q988 186 1056 498" stroke="url(#g3)" stroke-width="105" stroke-linecap="round" fill="none" opacity="0.42"/><path d="M91 731 Q206 473 792 288" stroke="url(#g4)" stroke-width="71" stroke-linecap="round" fill="none" opacity="0.59"/><path d="M224 99 Q638 -115 580 7" stroke="url(#g5)" stroke-width="55" stroke-linecap="round" fill="none" opacity="0.41"/><path d="M373 473 Q134 717 82 684" stroke="url(#g6)" stroke-width="51" stroke-linecap="round" fill="none" opacity="0.70"/><path d="M1214 600 Q1110 422 667 471" stroke="url(#g7)" stroke-width="83" stroke-linecap="round" fill="none" opacity="0.52"/><path d="M9 173 Q-82 275 -30 159" stroke="url(#g8)" stroke-width="95" stroke-linecap="round" fill="none" opacity="0.72"/></g>
<rect width="1200" height="800" filter="url(#grain)"/>
<rect x="26" y="26" width="1148" height="748" fill="none" stroke="#876D4F" stroke-width="1" opacity="0.6"/>
<text x="600" y="742.8" text-anchor="middle" font-family="Georgia, 'Times New Roman', serif" font-size="26" letter-spacing="7.8" fill="#F2DEBF" opacity="0.9">PLACEHOLDER · No. 09</text>
</svg>
