<svg xmlns="http://www.w3.org/2000/svg" viewBox="0 0 720 960" width="720" height="960" role="img" aria-label="PLACEHOLDER · DETAIL 01">
<defs>
<linearGradient id="bg" x1="0" y1="0" x2="1" y2="1"><stop offset="0" stop-color="#1E1C17"/><stop offset="1" stop-color="#151410"/></linearGradient>
<filter id="grain" x="0" y="0" width="100%" height="100%"><feTurbulence type="fractalNoise" baseFrequency="0.9" numOctaves="2" seed="1"/><feColorMatrix values="0 0 0 0 0.9  0 0 0 0 0.75  0 0 0 0 0.5  0 0 0 0.09 0"/></filter>
<filter id="blur"><feGaussianBlur stdDeviation="4"/></filter>
<linearGradient id="g0" gradientUnits="userSpaceOnUse" x1="-60" y1="861" x2="372" y2="917"><stop offset="0" stop-color="#F2DEBF"/><stop offset="1" stop-color="#876D4F"/></linearGradient><linearGradient id="g1" gradientUnits="userSpaceOnUse" x1="86" y1="953" x2="301" y2="637"><stop offset="0" stop-color="#876D4F"/><stop offset="1" stop-color="#4B3D2C"/></linearGradient><linearGradient id="g2" gradientUnits="userSpaceOnUse" x1="317" y1="131" x2="4" y2="414"><stop offset="0" stop-color="#876D4F"/><stop offset="1" stop-color="#F2DEBF"/></linearGradient><linearGradient id="g3" gradientUnits="userSpaceOnUse" x1="205" y1="233" x2="528" y2="309"><stop offset="0" stop-color="#876D4F"/><stop offset="1" stop-color="#D0A971"/></linearGradient><linearGradient id="g4" gradientUnits="userSpaceOnUse" x1="253" y1="179" x2="774" y2="132"><stop offset="0" stop-color="#876D4F"/><stop offset="1" stop-color="#D0A971"/></linearGradient>
</defs>
<rect width="720" height="960" fill="url(#bg)"/>
<g filter="url(#blur)"><path d="M-60 861 Q235 934 372 917" stroke="url(#g0)" stroke-width="217" stroke-linecap="round" fill="none" opacity="0.45"/><path d="M86 953 Q67 649 301 637" stroke="url(#g1)" stroke-width="126" stroke-linecap="round" fill="none" opacity="0.44"/><path d="M317 131 Q33 167 4 414" stroke="url(#g2)" stroke-width="120" stroke-linecap="round" fill="none" opacity="0.73"/><path d="M205 233 Q491 484 528 309" stroke="url(#g3)" stroke-width="112" stroke-linecap="round" fill="none" opacity="0.72"/><path d="M253 179 Q338 142 774 132" stroke="url(#g4)" stroke-width="125" stroke-linecap="round" fill="none" opacity="0.40"/></g>
<rect width="720" height="960" filter="url(#grain)"/>
<rect x="23" y="23" width="674" height="914" fill="none" stroke="#876D4F" stroke-width="1" opacity="0.6"/>
<text x="360" y="909.4" text-anchor="middle" font-family="Georgia, 'Times New Roman', serif" font-size="23" letter-spacing="6.9" fill="#F2DEBF" opacity="0.9">PLACEHOLDER · DETAIL 01</text>
</svg>
