<svg xmlns="http://www.w3.org/2000/svg" viewBox="0 0 800 800" width="800" height="800" role="img" aria-label="PLACEHOLDER · No. 06">
<defs>
<linearGradient id="bg" x1="0" y1="0" x2="1" y2="1"><stop offset="0" stop-color="#1E1C17"/><stop offset="1" stop-color="#151410"/></linearGradient>
<filter id="grain" x="0" y="0" width="100%" height="100%"><feTurbulence type="fractalNoise" baseFrequency="0.9" numOctaves="2" seed="6"/><feColorMatrix values="0 0 0 0 0.9  0 0 0 0 0.75  0 0 0 0 0.5  0 0 0 0.09 0"/></filter>
<filter id="blur"><feGaussianBlur stdDeviation="5"/></filter>
<linearGradient id="g0" gradientUnits="userSpaceOnUse" x1="459" y1="577" x2="492" y2="43"><stop offset="0" stop-color="#B4A187"/><stop offset="1" stop-color="#F2DEBF"/></linearGradient><linearGradient id="g1" gradientUnits="userSpaceOnUse" x1="874" y1="715" x2="95" y2="108"><stop offset="0" stop-color="#D0A971"/><stop offset="1" stop-color="#B4A187"/></linearGradient><linearGradient id="g2" gradientUnits="userSpaceOnUse" x1="564" y1="32" x2="444" y2="607"><stop offset="0" stop-color="#876D4F"/><stop offset="1" stop-color="#D0A971"/></linearGradient><linearGradient id="g3" gradientUnits="userSpaceOnUse" x1="763" y1="149" x2="247" y2="611"><stop offset="0" stop-color="#F2DEBF"/><stop offset="1" stop-color="#876D4F"/></linearGradient><linearGradient id="g4" gradientUnits="userSpaceOnUse" x1="214" y1="522" x2="-10" y2="51"><stop offset="0" stop-color="#D0A971"/><stop offset="1" stop-color="#4B3D2C"/></linearGradient><linearGradient id="g5" gradientUnits="userSpaceOnUse" x1="825" y1="489" x2="229" y2="428"><stop offset="0" stop-color="#876D4F"/><stop offset="1" stop-color="#876D4F"/></linearGradient><linearGradient id="g6" gradientUnits="userSpaceOnUse" x1="523" y1="247" x2="526" y2="459"><stop offset="0" stop-color="#B4A187"/><stop offset="1" stop-color="#F2DEBF"/></linearGradient><linearGradient id="g7" gradientUnits="userSpaceOnUse" x1="185" y1="766" x2="-18" y2="253"><stop offset="0" stop-color="#E4C48F"/><stop offset="1" stop-color="#876D4F"/></linearGradient><linearGradient id="g8" gradientUnits="userSpaceOnUse" x1="651" y1="226" x2="325" y2="420"><stop offset="0" stop-color="#D0A971"/><stop offset="1" stop-color="#E4C48F"/></linearGradient>
</defs>
<rect width="800" height="800" fill="url(#bg)"/>
<g filter="url(#blur)"><path d="M459 577 Q557 422 492 43" stroke="url(#g0)" stroke-width="97" stroke-linecap="round" fill="none" opacity="0.67"/><path d="M874 715 Q546 544 95 108" stroke="url(#g1)" stroke-width="109" stroke-linecap="round" fill="none" opacity="0.42"/><path d="M564 32 Q477 413 444 607" stroke="url(#g2)" stroke-width="80" stroke-linecap="round" fill="none" opacity="0.40"/><path d="M763 149 Q418 192 247 611" stroke="url(#g3)" stroke-width="59" stroke-linecap="round" fill="none" opacity="0.79"/><path d="M214 522 Q69 399 -10 51" stroke="url(#g4)" stroke-width="108" stroke-linecap="round" fill="none" opacity="0.74"/><path d="M825 489 Q553 575 229 428" stroke="url(#g5)" stroke-width="58" stroke-linecap="round" fill="none" opacity="0.61"/><path d="M523 247 Q401 350 526 459" stroke="url(#g6)" stroke-width="78" stroke-linecap="round" fill="none" opacity="0.36"/><path d="M185 766 Q41 509 -18 253" stroke="url(#g7)" stroke-width="72" stroke-linecap="round" fill="none" opacity="0.61"/><path d="M651 226 Q473 460 325 420" stroke="url(#g8)" stroke-width="78" stroke-linecap="round" fill="none" opacity="0.75"/></g>
<rect width="800" height="800" filter="url(#grain)"/>
<rect x="26" y="26" width="748" height="748" fill="none" stroke="#876D4F" stroke-width="1" opacity="0.6"/>
<text x="400" y="742.8" text-anchor="middle" font-family="Georgia, 'Times New Roman', serif" font-size="26" letter-spacing="7.8" fill="#F2DEBF" opacity="0.9">PLACEHOLDER · No. 06</text>
</svg>
